<?xml version="1.0" encoding="utf-8"?>
<!-- Generator: Adobe Illustrator 26.4.1, SVG Export Plug-In . SVG Version: 6.00 Build 0)  -->
<svg version="1.1" id="Layer_1" xmlns="http://www.w3.org/2000/svg" xmlns:xlink="http://www.w3.org/1999/xlink" x="0px" y="0px"
	 viewBox="0 0 397.71 252.05" style="enable-background:new 0 0 397.71 252.05;" xml:space="preserve">
<style type="text/css">
	.st0{fill:#ED1C24;}
	.st1{fill:none;stroke:#FFF200;stroke-width:0.0981;stroke-miterlimit:10;}
</style>
<g>
	<g>
		<path class="st0" d="M155.88,75.44c-6.13,0-12.08,1.21-17.69,3.58c-5.41,2.3-10.27,5.58-14.44,9.77c-2.8,2.81-5.2,5.94-7.17,9.33
			c-0.88-5.6-2.44-11.07-4.65-16.31c-3.53-8.37-8.58-15.88-15.01-22.33C90.49,53.02,83,47.96,74.65,44.42
			c-8.64-3.66-17.81-5.52-27.27-5.52h-3.5v35.57c0,9.48,1.85,18.69,5.51,27.35c3.53,8.37,8.58,15.88,15.01,22.33
			c6.43,6.45,13.92,11.52,22.27,15.06c3.49,1.48,7.1,2.67,10.78,3.56c-1.55,1.05-2.99,2.25-4.33,3.59c-5.56,5.58-8.63,13-8.63,20.89
			v16.01h3.5c7.87,0,15.26-3.07,20.83-8.65s8.63-13,8.63-20.89l0-9.13c4.9-0.37,9.67-1.53,14.19-3.45
			c5.41-2.3,10.27-5.58,14.44-9.77c4.17-4.18,7.45-9.06,9.74-14.49c2.37-5.62,3.57-11.59,3.57-17.74V75.44H155.88z M110.44,145v8.72
			c0,11.12-8.19,20.55-18.96,22.25v-8.72C91.49,156.13,99.67,146.7,110.44,145z M110.44,109.16v28.46
			c-33-1.84-59.56-29.8-59.56-63.15V46.01C83.89,47.85,110.44,75.81,110.44,109.16z M152.39,82.61v16.54
			c0,20.09-15.21,36.63-34.95,38.4V121C117.44,100.91,132.65,84.39,152.39,82.61z"/>
	</g>
	<g>
		<path class="st0" d="M228.53,110.14v29.79c-5.03,0-9.08-4.04-9.08-9.15v-9.07h-36.47v9.07c0,5.11-4.13,9.15-9.16,9.15v-30.42
			c0-15.91,13.67-28.61,29.89-27.18C217.4,83.54,228.53,96.41,228.53,110.14z M219.45,112.56v-2.57c0-9.35-6.85-17.55-16.15-18.59
			c-11-1.22-20.32,7.36-20.32,18.1v3.05H219.45z"/>
		<path class="st0" d="M253.34,82.22h35.97v0c0,5.01-3.85,9.07-8.6,9.07h-27.37c-2.03,0-3.83,0.91-5.08,2.23
			c-1.02,1.07-1.72,2.39-2.03,3.87c-0.08,0.49-0.08,0.99-0.08,1.48v7.67h37.46v0c0,5.01-3.85,9.07-8.6,9.07h-21.66
			c-3.97,0-7.19,3.4-7.19,7.58v4.62v2.97l0,0c0,5.05-3.89,9.15-8.68,9.15h0V98.88c0-4.62,1.8-8.74,4.61-11.79
			C244.97,84.04,248.96,82.22,253.34,82.22z"/>
		<path class="st0" d="M345.25,115.61c1.35,2.7,2.02,5.73,1.75,8.97c-0.71,8.77-8.37,15.35-17.14,15.35h-37.32
			c0-5.03,4.11-9.15,9.13-9.15h28.78c2.06,0,3.95-0.82,5.34-2.23c1.5-1.41,2.34-3.49,2.21-5.83c-0.22-4.03-3.71-7.12-7.74-7.12
			h-21.03c-4.6,0-8.8-1.9-11.84-4.86c-1.23-1.24-2.22-2.64-3.04-4.2c-1.15-2.31-1.81-4.86-1.81-7.67c0-9.15,7.48-16.65,16.69-16.65
			h37.83c0,5.03-4.03,9.07-9.05,9.07h-28.78c-2.14,0-4.03,0.91-5.34,2.23c-1.37,1.37-2.19,3.22-2.22,5.24
			c-0.07,4.28,3.75,7.79,8.02,7.79l20.76,0c4.6,0,8.72,1.81,11.76,4.86C343.44,112.64,344.51,114.05,345.25,115.61z"/>
	</g>
	<g>
		<path class="st0" d="M176.56,166.46c-0.68,0-1.22-0.14-1.63-0.43c-0.4-0.29-0.69-0.7-0.86-1.22c-0.17-0.53-0.26-1.14-0.26-1.84
			v-3.39c0-0.73,0.09-1.35,0.26-1.88c0.18-0.52,0.48-0.93,0.92-1.21c0.44-0.28,1.03-0.43,1.78-0.43c0.73,0,1.3,0.12,1.72,0.36
			c0.42,0.24,0.72,0.58,0.91,1.02c0.18,0.44,0.28,0.97,0.28,1.58v0.59h-2.01v-0.71c0-0.27-0.02-0.5-0.05-0.71
			c-0.03-0.2-0.11-0.36-0.23-0.48c-0.12-0.12-0.31-0.17-0.58-0.17c-0.28,0-0.48,0.07-0.6,0.21c-0.13,0.14-0.2,0.32-0.24,0.54
			c-0.03,0.22-0.05,0.46-0.05,0.71v4.49c0,0.28,0.03,0.54,0.08,0.76c0.05,0.23,0.14,0.4,0.28,0.53c0.14,0.12,0.34,0.19,0.59,0.19
			c0.26,0,0.46-0.07,0.6-0.2s0.24-0.31,0.29-0.54c0.05-0.23,0.08-0.49,0.08-0.78v-1.07h-0.99v-1.25h2.85v5.2h-1.35l-0.13-0.91
			c-0.13,0.31-0.33,0.56-0.6,0.76C177.36,166.36,177.01,166.46,176.56,166.46z"/>
		<path class="st0" d="M181.14,166.31v-10.12h2.05v10.12H181.14z"/>
		<path class="st0" d="M184.74,166.31v-10.12h4.41v1.42h-2.35v2.69h1.81v1.44h-1.81v3.17h2.38v1.4H184.74z"/>
		<path class="st0" d="M193.04,166.45c-0.74,0-1.33-0.13-1.76-0.4c-0.43-0.27-0.74-0.65-0.93-1.14s-0.28-1.09-0.28-1.78v-3.78
			c0-0.69,0.09-1.28,0.28-1.77s0.5-0.87,0.93-1.12c0.43-0.26,1.02-0.39,1.76-0.39c0.75,0,1.34,0.13,1.78,0.39
			c0.44,0.26,0.75,0.64,0.94,1.12c0.19,0.49,0.28,1.08,0.28,1.77v3.78c0,0.69-0.09,1.29-0.28,1.78c-0.19,0.5-0.5,0.88-0.94,1.14
			C194.39,166.32,193.79,166.45,193.04,166.45z M193.04,164.96c0.27,0,0.46-0.06,0.59-0.18c0.12-0.12,0.21-0.28,0.25-0.49
			c0.04-0.2,0.06-0.42,0.06-0.66v-4.79c0-0.23-0.02-0.45-0.06-0.65c-0.04-0.2-0.13-0.36-0.25-0.48c-0.13-0.12-0.32-0.18-0.59-0.18
			c-0.25,0-0.44,0.06-0.56,0.18c-0.12,0.12-0.21,0.28-0.25,0.48c-0.04,0.2-0.06,0.42-0.06,0.65v4.79c0,0.23,0.02,0.45,0.06,0.66
			c0.04,0.2,0.12,0.37,0.24,0.49C192.59,164.9,192.78,164.96,193.04,164.96z"/>
		<path class="st0" d="M200.5,166.31l0.17-10.12h2.19l1.25,6.39l1.34-6.39h2.11l0.17,10.12h-1.5l-0.16-6.86l-1.29,6.86h-1.29
			l-1.35-6.91l-0.14,6.91H200.5z"/>
		<path class="st0" d="M208.73,166.31l1.96-10.12h2.29l1.95,10.12h-1.91l-0.36-2.23h-1.6l-0.39,2.23H208.73z M209.87,155.34
			l1.16-2.05h1.6l1.19,2.05h-1.35l-0.64-1.25l-0.63,1.25H209.87z M211.24,162.82h1.21l-0.61-4.09L211.24,162.82z M213.85,153.9
			l-1.07-1.51h1.45l0.66,1.51H213.85z"/>
		<path class="st0" d="M215.92,166.31l0.17-10.12h2.19l1.25,6.39l1.34-6.39h2.11l0.17,10.12h-1.5l-0.16-6.86l-1.29,6.86h-1.29
			l-1.35-6.91l-0.14,6.91H215.92z"/>
		<path class="st0" d="M228.72,166.31v-8.59h-1.56v-1.54h5.17v1.54h-1.54v8.59H228.72z"/>
		<path class="st0" d="M236.09,166.45c-0.77,0-1.36-0.13-1.79-0.39c-0.43-0.26-0.72-0.64-0.89-1.14c-0.17-0.5-0.26-1.1-0.26-1.81
			v-6.92h2.04v7.21c0,0.25,0.02,0.5,0.06,0.74c0.04,0.24,0.12,0.44,0.25,0.59c0.13,0.15,0.33,0.22,0.59,0.22
			c0.27,0,0.48-0.07,0.61-0.22c0.13-0.15,0.21-0.35,0.24-0.59c0.03-0.24,0.05-0.49,0.05-0.74v-7.21h2.04v6.92
			c0,0.71-0.09,1.31-0.26,1.81c-0.17,0.5-0.47,0.87-0.89,1.14C237.45,166.32,236.86,166.45,236.09,166.45z M236.09,155.55
			l-0.63-0.61c0.24-0.12,0.45-0.23,0.62-0.34c0.17-0.11,0.26-0.26,0.26-0.44c0-0.17-0.07-0.28-0.2-0.35
			c-0.13-0.07-0.31-0.1-0.53-0.1c-0.12,0-0.24,0.01-0.38,0.03c-0.13,0.02-0.25,0.04-0.36,0.06v-0.81c0.38-0.1,0.79-0.15,1.21-0.15
			c0.27,0,0.51,0.04,0.74,0.12c0.23,0.08,0.41,0.21,0.55,0.38c0.14,0.17,0.21,0.41,0.21,0.7c0,0.28-0.07,0.52-0.21,0.71
			c-0.14,0.19-0.32,0.35-0.54,0.48C236.61,155.34,236.36,155.45,236.09,155.55z M237.75,156.98v-0.79h0.13
			c0.25,0,0.43-0.09,0.53-0.26c0.1-0.18,0.15-0.43,0.15-0.77h1.34c0,0.61-0.18,1.06-0.55,1.37c-0.37,0.3-0.85,0.46-1.46,0.46H237.75
			z"/>
		<path class="st0" d="M244.54,166.31v-8.59h-1.56v-1.54h5.17v1.54h-1.54v8.59H244.54z"/>
		<path class="st0" d="M249.06,166.31v-10.12h4.41v1.42h-2.35v2.69h1.81v1.44h-1.81v3.17h2.38v1.4H249.06z M249.33,155.34l1.16-2.05
			h1.6l1.19,2.05h-1.35l-0.64-1.25l-0.63,1.25H249.33z M252.96,153.9l0.66-1.51h1.44l-1.07,1.51H252.96z"/>
		<path class="st0" d="M254.6,168.04l-0.15-0.64c0.22-0.07,0.41-0.18,0.59-0.34c0.18-0.16,0.26-0.41,0.26-0.74h-0.99v-1.83h1.81
			v1.61c-0.01,0.58-0.14,1.04-0.39,1.36C255.49,167.79,255.11,167.98,254.6,168.04z"/>
		<path class="st0" d="M263.09,166.46c-0.68,0-1.22-0.14-1.63-0.43c-0.4-0.29-0.69-0.7-0.86-1.22c-0.17-0.53-0.26-1.14-0.26-1.84
			v-3.39c0-0.73,0.09-1.35,0.26-1.88c0.18-0.52,0.48-0.93,0.92-1.21c0.44-0.28,1.03-0.43,1.78-0.43c0.73,0,1.3,0.12,1.72,0.36
			c0.42,0.24,0.72,0.58,0.91,1.02c0.18,0.44,0.28,0.97,0.28,1.58v0.59h-2.01v-0.71c0-0.27-0.02-0.5-0.05-0.71
			c-0.03-0.2-0.11-0.36-0.23-0.48c-0.12-0.12-0.31-0.17-0.58-0.17c-0.28,0-0.48,0.07-0.6,0.21c-0.13,0.14-0.2,0.32-0.24,0.54
			c-0.03,0.22-0.05,0.46-0.05,0.71v4.49c0,0.28,0.03,0.54,0.08,0.76c0.05,0.23,0.14,0.4,0.28,0.53c0.14,0.12,0.34,0.19,0.59,0.19
			c0.26,0,0.46-0.07,0.6-0.2s0.24-0.31,0.29-0.54c0.05-0.23,0.08-0.49,0.08-0.78v-1.07h-0.99v-1.25h2.85v5.2h-1.35l-0.13-0.91
			c-0.13,0.31-0.33,0.56-0.6,0.76S263.54,166.46,263.09,166.46z"/>
		<path class="st0" d="M267.15,166.31l1.96-10.12h2.29l1.95,10.12h-1.91l-0.36-2.23h-1.6l-0.39,2.23H267.15z M270.26,155.38
			c-0.59,0-1.06-0.16-1.39-0.49c-0.34-0.33-0.51-0.79-0.51-1.39h1.07c0,0.3,0.06,0.53,0.19,0.68c0.12,0.15,0.34,0.23,0.64,0.23
			c0.29,0,0.5-0.08,0.63-0.24c0.13-0.16,0.19-0.38,0.19-0.68h1.06c0,0.6-0.17,1.06-0.5,1.39
			C271.32,155.21,270.85,155.38,270.26,155.38z M269.43,168.82v-1.65h1.66v1.65H269.43z M269.66,162.82h1.21l-0.61-4.09
			L269.66,162.82z"/>
		<path class="st0" d="M274.78,166.31v-8.59h-1.56v-1.54h5.17v1.54h-1.54v8.59H274.78z"/>
		<path class="st0" d="M282.45,166.31v-10.12h2.06v4.16h1.79v-4.16h2.06v10.12h-2.06v-4.49h-1.79v4.49H282.45z"/>
		<path class="st0" d="M289.42,166.31l1.96-10.12h2.29l1.95,10.12h-1.91l-0.36-2.23h-1.6l-0.39,2.23H289.42z M291.94,155.43
			l0.77-2.5h1.91l-1.54,2.5H291.94z M291.94,162.82h1.21l-0.61-4.09L291.94,162.82z"/>
		<path class="st0" d="M296.67,166.31v-10.12h2.05v10.12H296.67z"/>
		<path class="st0" d="M303.4,166.31v-10.12h1.44l2.25,5.27v-5.27h1.7v10.12h-1.37l-2.25-5.6v5.6H303.4z"/>
		<path class="st0" d="M310.35,166.31v-10.12h2.05v10.12H310.35z"/>
		<path class="st0" d="M313.95,166.31v-10.12h4.41v1.42h-2.35v2.69h1.81v1.44h-1.81v3.17h2.38v1.4H313.95z M314.21,155.34l1.16-2.05
			h1.6l1.19,2.05h-1.35l-0.64-1.25l-0.63,1.25H314.21z M318.2,153.9l-1.08-1.51h1.45l0.66,1.51H318.2z"/>
		<path class="st0" d="M319.38,166.31l0.17-10.12h2.19l1.25,6.39l1.34-6.39h2.11l0.17,10.12h-1.5l-0.16-6.86l-1.29,6.86h-1.29
			l-1.35-6.91l-0.14,6.91H319.38z"/>
		<path class="st0" d="M332.67,166.31l-1.92-10.12h1.79l1.2,7l1.12-7h1.86l-1.92,10.12H332.67z"/>
		<path class="st0" d="M340.61,166.45c-0.77,0-1.36-0.13-1.79-0.39c-0.43-0.26-0.72-0.64-0.89-1.14c-0.17-0.5-0.26-1.1-0.26-1.81
			v-6.92h2.04v7.21c0,0.25,0.02,0.5,0.06,0.74c0.04,0.24,0.12,0.44,0.25,0.59c0.13,0.15,0.33,0.22,0.59,0.22
			c0.27,0,0.48-0.07,0.61-0.22c0.13-0.15,0.21-0.35,0.24-0.59c0.03-0.24,0.05-0.49,0.05-0.74v-7.21h2.04v6.92
			c0,0.71-0.09,1.31-0.26,1.81c-0.17,0.5-0.47,0.87-0.89,1.14C341.97,166.32,341.38,166.45,340.61,166.45z"/>
		<path class="st0" d="M345.01,166.31v-10.12h2.05v10.12H345.01z"/>
	</g>
</g>
<g>
	<path class="st0" d="M-364.86,198.45l2.26,19.58h-4.04l-0.2-3.52h-1.42l-0.23,3.52h-4.09l2.01-19.58H-364.86z M-366.95,211.05
		c-0.2-2.22-0.4-4.95-0.6-8.21c-0.4,3.74-0.65,6.48-0.75,8.21H-366.95z"/>
	<path class="st0" d="M-352.44,205.66h-3.95v-1.78c0-1.12-0.04-1.82-0.11-2.1c-0.08-0.28-0.25-0.42-0.53-0.42
		c-0.24,0-0.41,0.12-0.5,0.36c-0.09,0.24-0.13,0.86-0.13,1.86v9.4c0,0.88,0.04,1.46,0.13,1.74c0.09,0.28,0.26,0.42,0.52,0.42
		c0.29,0,0.48-0.16,0.59-0.47c0.1-0.31,0.15-0.93,0.15-1.84v-2.32h-0.8v-2.98h4.62v10.51h-2.48l-0.37-1.4
		c-0.27,0.6-0.61,1.06-1.02,1.36c-0.41,0.3-0.89,0.45-1.45,0.45c-0.66,0-1.28-0.21-1.86-0.62c-0.58-0.42-1.02-0.93-1.32-1.54
		c-0.3-0.61-0.49-1.26-0.56-1.93c-0.08-0.67-0.11-1.68-0.11-3.03v-5.82c0-1.87,0.08-3.23,0.23-4.08c0.16-0.85,0.6-1.62,1.35-2.33
		c0.74-0.71,1.7-1.06,2.87-1.06c1.16,0,2.12,0.31,2.88,0.92c0.76,0.61,1.26,1.34,1.49,2.18c0.23,0.84,0.35,2.07,0.35,3.67V205.66z"
		/>
	<path class="st0" d="M-350.15,198.45h2.79c1.86,0,3.12,0.09,3.78,0.28c0.66,0.19,1.2,0.66,1.61,1.42c0.42,0.76,0.62,1.98,0.62,3.65
		c0,1.52-0.15,2.55-0.44,3.07c-0.29,0.52-0.87,0.84-1.73,0.94c0.78,0.25,1.31,0.58,1.57,1c0.27,0.42,0.44,0.8,0.5,1.16
		c0.07,0.35,0.1,1.32,0.1,2.9v5.16H-345v-6.51c0-1.05-0.06-1.7-0.19-1.95c-0.13-0.25-0.46-0.37-1.01-0.37v8.83h-3.95V198.45z
		 M-346.2,201.8v4.35c0.44,0,0.75-0.08,0.93-0.24c0.18-0.16,0.27-0.67,0.27-1.53v-1.08c0-0.62-0.09-1.03-0.26-1.22
		C-345.43,201.9-345.74,201.8-346.2,201.8z"/>
	<path class="st0" d="M-330.02,209.92c0,1.97-0.04,3.36-0.11,4.18c-0.07,0.82-0.3,1.57-0.67,2.24c-0.38,0.68-0.89,1.2-1.53,1.56
		c-0.64,0.36-1.39,0.54-2.25,0.54c-0.81,0-1.54-0.17-2.19-0.51c-0.65-0.34-1.17-0.86-1.56-1.54c-0.39-0.69-0.63-1.43-0.7-2.24
		c-0.08-0.81-0.11-2.22-0.11-4.23v-3.35c0-1.97,0.04-3.36,0.11-4.18c0.07-0.82,0.3-1.57,0.67-2.24c0.38-0.68,0.89-1.2,1.53-1.56
		c0.64-0.36,1.39-0.54,2.25-0.54c0.81,0,1.54,0.17,2.19,0.51c0.65,0.34,1.17,0.86,1.56,1.54c0.39,0.69,0.63,1.43,0.7,2.24
		c0.08,0.81,0.11,2.22,0.11,4.23V209.92z M-333.97,203.49c0-0.91-0.04-1.49-0.12-1.75c-0.08-0.25-0.24-0.38-0.48-0.38
		c-0.21,0-0.36,0.1-0.47,0.31c-0.11,0.21-0.16,0.81-0.16,1.82v9.14c0,1.14,0.04,1.84,0.11,2.1c0.07,0.27,0.24,0.4,0.5,0.4
		c0.27,0,0.44-0.15,0.52-0.46c0.08-0.31,0.11-1.04,0.11-2.19V203.49z"/>
	<path class="st0" d="M-327.78,198.45h6.68v3.92h-2.74v3.71h2.44v3.73h-2.44v8.22h-3.95V198.45z"/>
	<path class="st0" d="M-310.35,209.92c0,1.97-0.04,3.36-0.11,4.18c-0.07,0.82-0.3,1.57-0.67,2.24c-0.38,0.68-0.89,1.2-1.53,1.56
		c-0.64,0.36-1.39,0.54-2.25,0.54c-0.81,0-1.54-0.17-2.19-0.51c-0.65-0.34-1.17-0.86-1.56-1.54c-0.39-0.69-0.63-1.43-0.7-2.24
		c-0.08-0.81-0.11-2.22-0.11-4.23v-3.35c0-1.97,0.04-3.36,0.11-4.18c0.07-0.82,0.3-1.57,0.67-2.24c0.38-0.68,0.89-1.2,1.53-1.56
		c0.64-0.36,1.39-0.54,2.25-0.54c0.81,0,1.54,0.17,2.19,0.51c0.65,0.34,1.17,0.86,1.56,1.54c0.39,0.69,0.63,1.43,0.7,2.24
		c0.08,0.81,0.11,2.22,0.11,4.23V209.92z M-314.3,203.49c0-0.91-0.04-1.49-0.12-1.75c-0.08-0.25-0.24-0.38-0.48-0.38
		c-0.21,0-0.36,0.1-0.47,0.31c-0.11,0.21-0.16,0.81-0.16,1.82v9.14c0,1.14,0.04,1.84,0.11,2.1c0.07,0.27,0.24,0.4,0.5,0.4
		c0.27,0,0.44-0.15,0.52-0.46c0.08-0.31,0.11-1.04,0.11-2.19V203.49z"/>
	<path class="st0" d="M-308.11,198.45h2.79c1.86,0,3.12,0.09,3.78,0.28c0.66,0.19,1.2,0.66,1.61,1.42c0.42,0.76,0.62,1.98,0.62,3.65
		c0,1.52-0.15,2.55-0.44,3.07c-0.29,0.52-0.87,0.84-1.73,0.94c0.78,0.25,1.31,0.58,1.57,1c0.27,0.42,0.44,0.8,0.5,1.16
		c0.07,0.35,0.1,1.32,0.1,2.9v5.16h-3.67v-6.51c0-1.05-0.06-1.7-0.19-1.95c-0.13-0.25-0.46-0.37-1.01-0.37v8.83h-3.95V198.45z
		 M-304.17,201.8v4.35c0.44,0,0.75-0.08,0.93-0.24c0.18-0.16,0.27-0.67,0.27-1.53v-1.08c0-0.62-0.09-1.03-0.26-1.22
		C-303.4,201.9-303.71,201.8-304.17,201.8z"/>
	<path class="st0" d="M-297.01,198.45h6.58v3.92h-2.63v3.71h2.47v3.73h-2.47v4.31h2.9v3.92h-6.84V198.45z"/>
	<path class="st0" d="M-279.9,204.38h-3.67v-1.45c0-0.68-0.05-1.11-0.14-1.29c-0.09-0.19-0.25-0.28-0.47-0.28
		c-0.24,0-0.42,0.13-0.54,0.37c-0.12,0.25-0.18,0.63-0.18,1.14c0,0.65,0.07,1.15,0.21,1.48c0.13,0.33,0.5,0.73,1.12,1.2
		c1.76,1.35,2.86,2.45,3.32,3.31c0.46,0.86,0.68,2.25,0.68,4.17c0,1.4-0.13,2.42-0.38,3.08c-0.25,0.66-0.74,1.22-1.47,1.66
		c-0.73,0.45-1.57,0.67-2.53,0.67c-1.06,0-1.96-0.26-2.7-0.77c-0.75-0.52-1.24-1.17-1.47-1.97c-0.23-0.8-0.35-1.93-0.35-3.4v-1.28
		h3.67v2.38c0,0.73,0.05,1.21,0.15,1.42c0.1,0.21,0.29,0.31,0.55,0.31c0.26,0,0.46-0.13,0.59-0.4c0.13-0.27,0.19-0.66,0.19-1.19
		c0-1.15-0.12-1.91-0.37-2.26c-0.25-0.35-0.87-0.95-1.85-1.78c-0.98-0.84-1.63-1.45-1.95-1.83c-0.32-0.38-0.58-0.9-0.79-1.57
		c-0.21-0.67-0.31-1.52-0.31-2.56c0-1.5,0.15-2.6,0.45-3.29c0.3-0.69,0.78-1.24,1.44-1.63c0.66-0.39,1.46-0.59,2.4-0.59
		c1.02,0,1.9,0.21,2.62,0.64c0.72,0.43,1.2,0.97,1.43,1.61c0.23,0.65,0.35,1.75,0.35,3.31V204.38z"/>
	<path class="st0" d="M-269.62,198.45v3.92h-2.34v15.66h-3.95v-15.66h-2.33v-3.92H-269.62z"/>
	<path class="st0" d="M-267.95,198.45h2.79c1.86,0,3.12,0.09,3.78,0.28c0.66,0.19,1.2,0.66,1.61,1.42c0.42,0.76,0.62,1.98,0.62,3.65
		c0,1.52-0.15,2.55-0.44,3.07c-0.29,0.52-0.87,0.84-1.73,0.94c0.78,0.25,1.31,0.58,1.57,1c0.27,0.42,0.44,0.8,0.5,1.16
		c0.07,0.35,0.1,1.32,0.1,2.9v5.16h-3.67v-6.51c0-1.05-0.06-1.7-0.19-1.95c-0.13-0.25-0.46-0.37-1.01-0.37v8.83h-3.95V198.45z
		 M-264,201.8v4.35c0.44,0,0.75-0.08,0.93-0.24c0.18-0.16,0.27-0.67,0.27-1.53v-1.08c0-0.62-0.09-1.03-0.26-1.22
		C-263.23,201.9-263.55,201.8-264,201.8z"/>
	<path class="st0" d="M-249.83,198.45l-2.88,12.49v7.09h-3.66v-7.09l-2.77-12.49h3.63c0.57,3.81,0.89,6.38,0.96,7.7
		c0.22-2.09,0.58-4.66,1.1-7.7H-249.83z"/>
	<path class="st0" d="M-234.5,204.38h-3.67v-1.45c0-0.68-0.05-1.11-0.14-1.29c-0.09-0.19-0.25-0.28-0.47-0.28
		c-0.24,0-0.42,0.13-0.54,0.37c-0.12,0.25-0.18,0.63-0.18,1.14c0,0.65,0.07,1.15,0.21,1.48c0.13,0.33,0.5,0.73,1.12,1.2
		c1.76,1.35,2.86,2.45,3.32,3.31c0.46,0.86,0.68,2.25,0.68,4.17c0,1.4-0.13,2.42-0.38,3.08c-0.25,0.66-0.74,1.22-1.47,1.66
		c-0.73,0.45-1.57,0.67-2.53,0.67c-1.06,0-1.96-0.26-2.7-0.77c-0.75-0.52-1.24-1.17-1.47-1.97c-0.23-0.8-0.35-1.93-0.35-3.4v-1.28
		h3.67v2.38c0,0.73,0.05,1.21,0.15,1.42c0.1,0.21,0.29,0.31,0.55,0.31c0.26,0,0.46-0.13,0.59-0.4c0.13-0.27,0.19-0.66,0.19-1.19
		c0-1.15-0.12-1.91-0.37-2.26c-0.25-0.35-0.87-0.95-1.85-1.78c-0.98-0.84-1.63-1.45-1.95-1.83c-0.32-0.38-0.58-0.9-0.79-1.57
		c-0.21-0.67-0.31-1.52-0.31-2.56c0-1.5,0.15-2.6,0.45-3.29c0.3-0.69,0.78-1.24,1.44-1.63c0.66-0.39,1.46-0.59,2.4-0.59
		c1.02,0,1.9,0.21,2.62,0.64c0.72,0.43,1.2,0.97,1.43,1.61c0.23,0.65,0.35,1.75,0.35,3.31V204.38z"/>
	<path class="st0" d="M-223.19,198.45v13.09c0,1.48-0.04,2.53-0.11,3.13c-0.08,0.6-0.3,1.22-0.67,1.85
		c-0.37,0.63-0.85,1.11-1.46,1.44c-0.6,0.33-1.31,0.49-2.13,0.49c-0.91,0-1.71-0.19-2.4-0.58c-0.69-0.39-1.21-0.89-1.56-1.51
		c-0.34-0.62-0.55-1.28-0.61-1.97c-0.06-0.69-0.09-2.14-0.09-4.35v-11.59h3.95v14.68c0,0.85,0.04,1.4,0.11,1.64
		c0.07,0.24,0.22,0.36,0.44,0.36c0.25,0,0.41-0.13,0.48-0.39c0.07-0.26,0.11-0.88,0.11-1.86v-14.43H-223.19z"/>
	<path class="st0" d="M-220.89,198.45h3.97c1.07,0,1.9,0.11,2.48,0.33c0.58,0.22,1.01,0.53,1.3,0.94c0.29,0.41,0.49,0.91,0.59,1.49
		c0.1,0.58,0.15,1.49,0.15,2.72v1.71c0,1.25-0.1,2.16-0.3,2.73c-0.2,0.57-0.57,1.01-1.1,1.32c-0.53,0.31-1.23,0.46-2.1,0.46h-1.06
		v7.89h-3.95V198.45z M-216.95,201.8v4.98c0.11,0.01,0.21,0.01,0.29,0.01c0.36,0,0.61-0.11,0.75-0.34c0.14-0.23,0.21-0.71,0.21-1.43
		v-1.61c0-0.67-0.08-1.1-0.24-1.31C-216.1,201.91-216.44,201.8-216.95,201.8z"/>
	<path class="st0" d="M-210.49,198.45h3.97c1.07,0,1.9,0.11,2.48,0.33c0.58,0.22,1.01,0.53,1.3,0.94c0.29,0.41,0.49,0.91,0.59,1.49
		c0.1,0.58,0.15,1.49,0.15,2.72v1.71c0,1.25-0.1,2.16-0.3,2.73c-0.2,0.57-0.57,1.01-1.1,1.32c-0.53,0.31-1.23,0.46-2.1,0.46h-1.06
		v7.89h-3.95V198.45z M-206.54,201.8v4.98c0.11,0.01,0.21,0.01,0.29,0.01c0.36,0,0.61-0.11,0.75-0.34c0.14-0.23,0.21-0.71,0.21-1.43
		v-1.61c0-0.67-0.08-1.1-0.24-1.31C-205.69,201.91-206.03,201.8-206.54,201.8z"/>
	<path class="st0" d="M-196.14,198.45v15.66h2.4v3.92h-6.35v-19.58H-196.14z"/>
	<path class="st0" d="M-185,198.45l-2.88,12.49v7.09h-3.66v-7.09l-2.77-12.49h3.63c0.57,3.81,0.89,6.38,0.96,7.7
		c0.22-2.09,0.58-4.66,1.1-7.7H-185z"/>
	<path class="st0" d="M-168.82,206.99h-3.95v-3.41c0-0.99-0.04-1.61-0.13-1.86c-0.08-0.25-0.27-0.37-0.56-0.37
		c-0.33,0-0.53,0.15-0.62,0.45c-0.09,0.3-0.13,0.94-0.13,1.94v9.1c0,0.95,0.04,1.57,0.13,1.86c0.09,0.29,0.28,0.44,0.59,0.44
		c0.29,0,0.49-0.15,0.58-0.44c0.09-0.29,0.14-0.97,0.14-2.04v-2.46h3.95v0.76c0,2.02-0.11,3.46-0.33,4.31
		c-0.22,0.85-0.71,1.59-1.47,2.23s-1.7,0.96-2.81,0.96c-1.16,0-2.11-0.27-2.86-0.81c-0.75-0.54-1.25-1.29-1.49-2.24
		c-0.24-0.96-0.37-2.39-0.37-4.31v-5.72c0-1.41,0.04-2.47,0.11-3.18c0.08-0.71,0.3-1.38,0.67-2.04c0.37-0.65,0.89-1.17,1.55-1.54
		c0.66-0.37,1.42-0.56,2.27-0.56c1.16,0,2.12,0.29,2.88,0.87c0.76,0.58,1.25,1.3,1.49,2.17c0.24,0.87,0.36,2.22,0.36,4.05V206.99z"
		/>
	<path class="st0" d="M-157.61,209.92c0,1.97-0.04,3.36-0.11,4.18c-0.07,0.82-0.3,1.57-0.67,2.24c-0.38,0.68-0.89,1.2-1.53,1.56
		c-0.64,0.36-1.39,0.54-2.25,0.54c-0.81,0-1.54-0.17-2.19-0.51c-0.65-0.34-1.17-0.86-1.56-1.54c-0.39-0.69-0.63-1.43-0.7-2.24
		c-0.08-0.81-0.11-2.22-0.11-4.23v-3.35c0-1.97,0.04-3.36,0.11-4.18c0.07-0.82,0.3-1.57,0.67-2.24c0.38-0.68,0.89-1.2,1.53-1.56
		c0.64-0.36,1.39-0.54,2.25-0.54c0.81,0,1.54,0.17,2.19,0.51c0.65,0.34,1.17,0.86,1.56,1.54c0.39,0.69,0.63,1.43,0.7,2.24
		c0.08,0.81,0.11,2.22,0.11,4.23V209.92z M-161.56,203.49c0-0.91-0.04-1.49-0.12-1.75c-0.08-0.25-0.24-0.38-0.48-0.38
		c-0.21,0-0.36,0.1-0.47,0.31c-0.11,0.21-0.16,0.81-0.16,1.82v9.14c0,1.14,0.04,1.84,0.11,2.1c0.07,0.27,0.24,0.4,0.5,0.4
		c0.27,0,0.44-0.15,0.52-0.46c0.08-0.31,0.11-1.04,0.11-2.19V203.49z"/>
	<path class="st0" d="M-155.37,198.45h2.79c1.86,0,3.12,0.09,3.78,0.28c0.66,0.19,1.2,0.66,1.61,1.42c0.42,0.76,0.62,1.98,0.62,3.65
		c0,1.52-0.15,2.55-0.44,3.07c-0.29,0.52-0.87,0.84-1.73,0.94c0.78,0.25,1.31,0.58,1.57,1c0.27,0.42,0.44,0.8,0.5,1.16
		s0.1,1.32,0.1,2.9v5.16h-3.67v-6.51c0-1.05-0.06-1.7-0.19-1.95c-0.13-0.25-0.46-0.37-1.01-0.37v8.83h-3.95V198.45z M-151.43,201.8
		v4.35c0.44,0,0.75-0.08,0.93-0.24c0.18-0.16,0.27-0.67,0.27-1.53v-1.08c0-0.62-0.09-1.03-0.26-1.22
		C-150.66,201.9-150.97,201.8-151.43,201.8z"/>
	<path class="st0" d="M-144.27,198.45h3.97c1.07,0,1.9,0.11,2.48,0.33c0.58,0.22,1.01,0.53,1.3,0.94c0.29,0.41,0.49,0.91,0.59,1.49
		c0.1,0.58,0.15,1.49,0.15,2.72v1.71c0,1.25-0.1,2.16-0.3,2.73c-0.2,0.57-0.57,1.01-1.1,1.32c-0.53,0.31-1.23,0.46-2.1,0.46h-1.06
		v7.89h-3.95V198.45z M-140.32,201.8v4.98c0.11,0.01,0.21,0.01,0.29,0.01c0.36,0,0.61-0.11,0.75-0.34c0.14-0.23,0.21-0.71,0.21-1.43
		v-1.61c0-0.67-0.08-1.1-0.24-1.31C-139.47,201.91-139.81,201.8-140.32,201.8z"/>
	<path class="st0" d="M-124.84,209.92c0,1.97-0.04,3.36-0.11,4.18c-0.07,0.82-0.3,1.57-0.67,2.24c-0.38,0.68-0.89,1.2-1.53,1.56
		c-0.64,0.36-1.39,0.54-2.25,0.54c-0.81,0-1.54-0.17-2.19-0.51c-0.65-0.34-1.17-0.86-1.56-1.54c-0.39-0.69-0.63-1.43-0.7-2.24
		c-0.08-0.81-0.11-2.22-0.11-4.23v-3.35c0-1.97,0.04-3.36,0.11-4.18c0.07-0.82,0.3-1.57,0.67-2.24c0.38-0.68,0.89-1.2,1.53-1.56
		c0.64-0.36,1.39-0.54,2.25-0.54c0.81,0,1.54,0.17,2.19,0.51c0.65,0.34,1.17,0.86,1.56,1.54c0.39,0.69,0.63,1.43,0.7,2.24
		c0.08,0.81,0.11,2.22,0.11,4.23V209.92z M-128.79,203.49c0-0.91-0.04-1.49-0.12-1.75c-0.08-0.25-0.24-0.38-0.48-0.38
		c-0.21,0-0.36,0.1-0.47,0.31c-0.11,0.21-0.16,0.81-0.16,1.82v9.14c0,1.14,0.04,1.84,0.11,2.1c0.07,0.27,0.24,0.4,0.5,0.4
		c0.27,0,0.44-0.15,0.52-0.46c0.08-0.31,0.11-1.04,0.11-2.19V203.49z"/>
	<path class="st0" d="M-122.6,198.45h2.79c1.86,0,3.12,0.09,3.78,0.28c0.66,0.19,1.2,0.66,1.61,1.42c0.42,0.76,0.62,1.98,0.62,3.65
		c0,1.52-0.15,2.55-0.44,3.07c-0.29,0.52-0.87,0.84-1.73,0.94c0.78,0.25,1.31,0.58,1.57,1c0.27,0.42,0.44,0.8,0.5,1.16
		s0.1,1.32,0.1,2.9v5.16h-3.67v-6.51c0-1.05-0.06-1.7-0.19-1.95c-0.13-0.25-0.46-0.37-1.01-0.37v8.83h-3.95V198.45z M-118.66,201.8
		v4.35c0.44,0,0.75-0.08,0.93-0.24c0.18-0.16,0.27-0.67,0.27-1.53v-1.08c0-0.62-0.09-1.03-0.26-1.22
		C-117.89,201.9-118.2,201.8-118.66,201.8z"/>
	<path class="st0" d="M-105.37,198.45l2.26,19.58h-4.04l-0.2-3.52h-1.42l-0.23,3.52h-4.09l2.01-19.58H-105.37z M-107.46,211.05
		c-0.2-2.22-0.4-4.95-0.6-8.21c-0.4,3.74-0.65,6.48-0.75,8.21H-107.46z"/>
	<path class="st0" d="M-95.48,198.45v3.92h-2.34v15.66h-3.95v-15.66h-2.33v-3.92H-95.48z"/>
	<path class="st0" d="M-89.86,198.45v19.58h-3.95v-19.58H-89.86z"/>
	<path class="st0" d="M-78.49,209.92c0,1.97-0.04,3.36-0.11,4.18c-0.07,0.82-0.3,1.57-0.67,2.24c-0.38,0.68-0.89,1.2-1.53,1.56
		c-0.64,0.36-1.39,0.54-2.25,0.54c-0.81,0-1.54-0.17-2.19-0.51c-0.65-0.34-1.17-0.86-1.56-1.54c-0.39-0.69-0.63-1.43-0.7-2.24
		c-0.08-0.81-0.11-2.22-0.11-4.23v-3.35c0-1.97,0.04-3.36,0.11-4.18c0.07-0.82,0.3-1.57,0.67-2.24c0.38-0.68,0.89-1.2,1.53-1.56
		c0.64-0.36,1.39-0.54,2.25-0.54c0.81,0,1.54,0.17,2.19,0.51c0.65,0.34,1.17,0.86,1.56,1.54c0.39,0.69,0.63,1.43,0.7,2.24
		c0.08,0.81,0.11,2.22,0.11,4.23V209.92z M-82.44,203.49c0-0.91-0.04-1.49-0.12-1.75c-0.08-0.25-0.24-0.38-0.48-0.38
		c-0.21,0-0.36,0.1-0.47,0.31c-0.11,0.21-0.16,0.81-0.16,1.82v9.14c0,1.14,0.04,1.84,0.11,2.1c0.07,0.27,0.24,0.4,0.5,0.4
		c0.27,0,0.44-0.15,0.52-0.46c0.08-0.31,0.11-1.04,0.11-2.19V203.49z"/>
	<path class="st0" d="M-67.44,198.45v19.58h-3.46l-2.05-8.9v8.9h-3.3v-19.58h3.3l2.21,8.82v-8.82H-67.44z"/>
</g>
<g>
	<g>
		<path class="st0" d="M-261.37,75.85c-6.13,0-12.07,1.2-17.67,3.58c-5.41,2.29-10.26,5.58-14.43,9.76c-2.8,2.81-5.2,5.93-7.16,9.32
			c-0.88-5.6-2.43-11.06-4.64-16.3c-3.53-8.36-8.57-15.87-15-22.31c-6.43-6.45-13.91-11.51-22.24-15.04
			c-8.63-3.66-17.8-5.52-27.24-5.52h-3.49v35.54c0,9.47,1.85,18.67,5.5,27.32c3.53,8.36,8.57,15.87,15,22.31
			c6.43,6.45,13.91,11.51,22.24,15.04c3.49,1.48,7.09,2.67,10.77,3.56c-1.54,1.05-2.99,2.25-4.33,3.59
			c-5.56,5.57-8.62,12.98-8.62,20.87v16h3.49c7.86,0,15.25-3.07,20.81-8.64c5.56-5.57,8.62-12.98,8.62-20.87l0-9.12
			c4.9-0.37,9.66-1.53,14.18-3.44c5.41-2.29,10.26-5.58,14.43-9.76c4.17-4.18,7.44-9.05,9.73-14.47c2.37-5.62,3.57-11.58,3.57-17.72
			V75.85H-261.37z M-306.77,145.35v8.71c0,11.11-8.18,20.53-18.94,22.23v-8.71C-325.71,156.47-317.53,147.05-306.77,145.35z
			 M-306.77,109.54v28.43c-32.97-1.84-59.5-29.77-59.5-63.09V46.45C-333.3,48.29-306.77,76.22-306.77,109.54z M-264.87,83.02v16.52
			c0,20.08-15.19,36.59-34.91,38.37v-16.53C-299.78,101.31-284.58,84.79-264.87,83.02z"/>
	</g>
	<g>
		<path class="st0" d="M-188.8,110.53v29.76c-5.03,0-9.07-4.04-9.07-9.14v-9.06h-36.44v9.06c0,5.11-4.12,9.14-9.15,9.14V109.9
			c0-15.89,13.66-28.58,29.86-27.15C-199.92,83.95-188.8,96.81-188.8,110.53z M-197.86,112.94v-2.57c0-9.34-6.84-17.54-16.14-18.57
			c-10.99-1.22-20.3,7.35-20.3,18.09v3.05H-197.86z"/>
		<path class="st0" d="M-164.01,82.63h35.94v0c0,5-3.85,9.06-8.59,9.06h-27.34c-2.03,0-3.83,0.91-5.08,2.22
			c-1.02,1.07-1.72,2.39-2.03,3.87c-0.08,0.49-0.08,0.99-0.08,1.48v7.66h37.42v0c0,5-3.85,9.06-8.59,9.06h-21.64
			c-3.97,0-7.19,3.39-7.19,7.58v4.61v2.96l0,0c0,5.05-3.88,9.14-8.67,9.14l0,0V99.27c0-4.61,1.8-8.73,4.61-11.78
			C-172.37,84.45-168.38,82.63-164.01,82.63z"/>
		<path class="st0" d="M-72.19,115.99c1.34,2.69,2.01,5.73,1.75,8.96c-0.71,8.76-8.36,15.33-17.13,15.33h-37.29
			c0-5.02,4.11-9.14,9.12-9.14h28.75c2.05,0,3.94-0.82,5.34-2.22c1.5-1.41,2.33-3.49,2.21-5.82c-0.22-4.03-3.7-7.11-7.73-7.11
			l-21.01,0c-4.6,0-8.79-1.89-11.83-4.86c-1.23-1.24-2.22-2.64-3.04-4.2c-1.15-2.31-1.81-4.86-1.81-7.66
			c0-9.14,7.48-16.64,16.68-16.64h37.79c0,5.02-4.03,9.06-9.04,9.06h-28.75c-2.14,0-4.03,0.91-5.34,2.22
			c-1.37,1.37-2.19,3.22-2.22,5.24c-0.07,4.28,3.74,7.78,8.01,7.78l20.74,0c4.6,0,8.71,1.81,11.75,4.86
			C-74,113.03-72.93,114.43-72.19,115.99z"/>
	</g>
	<g>
		<path class="st0" d="M-241.35,153.6c-0.53,0-0.96-0.1-1.27-0.3c-0.31-0.2-0.53-0.48-0.65-0.84c-0.12-0.36-0.19-0.78-0.19-1.25
			v-2.59c0-0.5,0.06-0.93,0.19-1.28c0.12-0.36,0.34-0.64,0.65-0.83c0.31-0.2,0.73-0.29,1.27-0.29c0.52,0,0.92,0.09,1.21,0.26
			c0.29,0.17,0.5,0.42,0.62,0.73c0.12,0.31,0.18,0.68,0.18,1.09v0.6h-1.42v-0.68c0-0.17-0.01-0.32-0.03-0.47
			c-0.02-0.15-0.07-0.26-0.15-0.36c-0.08-0.09-0.22-0.14-0.41-0.14c-0.2,0-0.34,0.05-0.43,0.14c-0.09,0.09-0.15,0.22-0.17,0.37
			c-0.02,0.15-0.04,0.32-0.04,0.5v3.27c0,0.2,0.02,0.38,0.05,0.53c0.03,0.15,0.09,0.27,0.19,0.35c0.09,0.08,0.22,0.12,0.4,0.12
			c0.19,0,0.32-0.05,0.4-0.14c0.08-0.09,0.13-0.22,0.15-0.37c0.02-0.15,0.03-0.32,0.03-0.49v-0.7h1.42v0.6
			c0,0.42-0.06,0.79-0.18,1.12c-0.12,0.32-0.32,0.58-0.61,0.76C-240.41,153.51-240.82,153.6-241.35,153.6z"/>
		<path class="st0" d="M-236.4,153.6c-0.55,0-0.97-0.09-1.27-0.28c-0.3-0.19-0.51-0.46-0.64-0.81c-0.12-0.35-0.18-0.78-0.18-1.29
			v-4.93h1.45v5.13c0,0.18,0.01,0.35,0.04,0.52c0.03,0.17,0.09,0.31,0.18,0.42c0.09,0.11,0.23,0.16,0.42,0.16
			c0.2,0,0.34-0.05,0.43-0.16c0.09-0.11,0.15-0.25,0.17-0.42c0.02-0.17,0.04-0.35,0.04-0.52v-5.13h1.45v4.93
			c0,0.5-0.06,0.93-0.18,1.29c-0.12,0.35-0.33,0.62-0.64,0.81C-235.43,153.51-235.86,153.6-236.4,153.6z"/>
		<path class="st0" d="M-233.29,153.5v-7.2h1.47v6.21h1.69v1H-233.29z"/>
		<path class="st0" d="M-229.4,153.5v-6.11h-1.11v-1.09h3.68v1.09h-1.09v6.11H-229.4z"/>
		<path class="st0" d="M-226.16,153.5v-7.2h1.46v7.2H-226.16z"/>
		<path class="st0" d="M-222.58,153.5l-1.37-7.2h1.27l0.85,4.98l0.8-4.98h1.32l-1.37,7.2H-222.58z"/>
		<path class="st0" d="M-219.62,153.5l1.4-7.2h1.63l1.39,7.2h-1.36l-0.26-1.58h-1.14l-0.28,1.58H-219.62z M-217.84,151.02h0.86
			l-0.44-2.91L-217.84,151.02z"/>
		<path class="st0" d="M-214.2,153.5v-6.11h-1.11v-1.09h3.68v1.09h-1.09v6.11H-214.2z"/>
		<path class="st0" d="M-210.96,153.5v-7.2h1.46v7.2H-210.96z"/>
		<path class="st0" d="M-208.4,153.5v-7.2h1.02l1.6,3.75v-3.75h1.21v7.2h-0.98l-1.6-3.98v3.98H-208.4z"/>
		<path class="st0" d="M-201.63,153.61c-0.49,0-0.87-0.1-1.16-0.31c-0.28-0.2-0.49-0.49-0.61-0.87c-0.12-0.38-0.18-0.81-0.18-1.31
			v-2.41c0-0.52,0.06-0.96,0.19-1.33c0.12-0.37,0.34-0.66,0.65-0.86c0.31-0.2,0.73-0.3,1.27-0.3c0.52,0,0.92,0.09,1.22,0.26
			c0.3,0.17,0.51,0.42,0.64,0.73c0.13,0.31,0.2,0.69,0.2,1.12v0.42h-1.43v-0.51c0-0.19-0.01-0.36-0.04-0.5
			c-0.02-0.15-0.08-0.26-0.16-0.34c-0.09-0.08-0.22-0.12-0.41-0.12c-0.2,0-0.34,0.05-0.43,0.15c-0.09,0.1-0.15,0.23-0.17,0.39
			c-0.02,0.16-0.04,0.32-0.04,0.5v3.19c0,0.2,0.02,0.38,0.05,0.54c0.04,0.16,0.1,0.28,0.2,0.37c0.1,0.09,0.24,0.13,0.42,0.13
			c0.18,0,0.33-0.05,0.43-0.14c0.1-0.09,0.17-0.22,0.21-0.39c0.04-0.16,0.06-0.35,0.06-0.56v-0.76h-0.7v-0.89h2.03v3.7h-0.96
			l-0.09-0.65c-0.09,0.22-0.24,0.4-0.43,0.54C-201.06,153.54-201.31,153.61-201.63,153.61z"/>
		<path class="st0" d="M-196.17,153.5v-7.2h1.47v3.04l1.3-3.04h1.42l-1.35,3.24l1.45,3.97h-1.48l-1.11-3.23l-0.23,0.41v2.82H-196.17
			z"/>
		<path class="st0" d="M-191.24,153.5v-7.2h1.46v7.2H-191.24z"/>
		<path class="st0" d="M-188.68,153.5v-7.2h1.02l1.6,3.75v-3.75h1.21v7.2h-0.98l-1.6-3.98v3.98H-188.68z"/>
		<path class="st0" d="M-183.75,153.5v-7.2h1.76c0.61,0,1.09,0.08,1.43,0.24c0.34,0.16,0.58,0.4,0.72,0.74
			c0.14,0.33,0.21,0.76,0.21,1.28v2.62c0,0.53-0.07,0.97-0.21,1.32c-0.14,0.34-0.38,0.6-0.72,0.76c-0.33,0.16-0.8,0.24-1.4,0.24
			H-183.75z M-182.28,152.48h0.31c0.27,0,0.47-0.04,0.58-0.13s0.19-0.21,0.22-0.38c0.03-0.17,0.04-0.38,0.04-0.63v-2.97
			c0-0.25-0.02-0.45-0.06-0.6c-0.04-0.15-0.12-0.26-0.23-0.33s-0.3-0.11-0.56-0.11h-0.3V152.48z"/>
		<path class="st0" d="M-178.66,153.5v-7.2h1.02l1.6,3.75v-3.75h1.21v7.2h-0.98l-1.6-3.98v3.98H-178.66z"/>
		<path class="st0" d="M-173.73,153.5v-7.2h3.14v1.01h-1.67v1.91h1.29v1.02h-1.29v2.26h1.69v1H-173.73z"/>
		<path class="st0" d="M-167.97,153.6c-0.44,0-0.82-0.08-1.11-0.24c-0.3-0.16-0.52-0.41-0.67-0.74c-0.15-0.33-0.24-0.75-0.26-1.26
			l1.26-0.21c0.01,0.3,0.04,0.54,0.09,0.74s0.13,0.35,0.23,0.44c0.1,0.1,0.23,0.15,0.39,0.15c0.19,0,0.32-0.06,0.39-0.18
			c0.07-0.12,0.1-0.26,0.1-0.41c0-0.3-0.07-0.56-0.22-0.76c-0.15-0.2-0.34-0.41-0.57-0.62l-0.75-0.65
			c-0.27-0.23-0.48-0.48-0.65-0.76c-0.17-0.28-0.25-0.63-0.25-1.05c0-0.59,0.17-1.05,0.52-1.36c0.35-0.32,0.82-0.48,1.43-0.48
			c0.36,0,0.66,0.06,0.89,0.18c0.23,0.12,0.41,0.28,0.54,0.48s0.22,0.41,0.27,0.65c0.05,0.23,0.08,0.47,0.09,0.7l-1.25,0.19
			c-0.01-0.22-0.03-0.41-0.06-0.58c-0.03-0.17-0.08-0.3-0.16-0.39c-0.08-0.09-0.2-0.14-0.36-0.14c-0.17,0-0.3,0.06-0.38,0.19
			c-0.08,0.13-0.12,0.27-0.12,0.42c0,0.26,0.06,0.46,0.17,0.63c0.12,0.16,0.27,0.33,0.48,0.51l0.73,0.64
			c0.3,0.26,0.56,0.56,0.78,0.89c0.22,0.33,0.32,0.75,0.32,1.24c0,0.34-0.08,0.64-0.23,0.92s-0.37,0.49-0.64,0.64
			C-167.27,153.52-167.59,153.6-167.97,153.6z"/>
		<path class="st0" d="M-163.61,153.6c-0.44,0-0.82-0.08-1.11-0.24c-0.3-0.16-0.52-0.41-0.67-0.74c-0.15-0.33-0.24-0.75-0.26-1.26
			l1.26-0.21c0.01,0.3,0.04,0.54,0.09,0.74c0.05,0.2,0.13,0.35,0.23,0.44c0.1,0.1,0.23,0.15,0.39,0.15c0.19,0,0.32-0.06,0.39-0.18
			c0.07-0.12,0.1-0.26,0.1-0.41c0-0.3-0.07-0.56-0.22-0.76c-0.15-0.2-0.34-0.41-0.57-0.62l-0.75-0.65
			c-0.27-0.23-0.48-0.48-0.65-0.76c-0.17-0.28-0.25-0.63-0.25-1.05c0-0.59,0.17-1.05,0.52-1.36c0.35-0.32,0.82-0.48,1.43-0.48
			c0.36,0,0.66,0.06,0.89,0.18c0.23,0.12,0.41,0.28,0.54,0.48c0.13,0.2,0.22,0.41,0.27,0.65c0.05,0.23,0.08,0.47,0.09,0.7
			l-1.25,0.19c-0.01-0.22-0.03-0.41-0.06-0.58c-0.03-0.17-0.08-0.3-0.16-0.39c-0.08-0.09-0.2-0.14-0.36-0.14
			c-0.17,0-0.3,0.06-0.38,0.19s-0.12,0.27-0.12,0.42c0,0.26,0.06,0.46,0.17,0.63c0.12,0.16,0.27,0.33,0.48,0.51l0.73,0.64
			c0.3,0.26,0.56,0.56,0.78,0.89c0.22,0.33,0.32,0.75,0.32,1.24c0,0.34-0.08,0.64-0.23,0.92c-0.15,0.27-0.37,0.49-0.64,0.64
			C-162.91,153.52-163.24,153.6-163.61,153.6z"/>
		<path class="st0" d="M-160.94,154.73l-0.11-0.45c0.15-0.05,0.29-0.13,0.42-0.24c0.12-0.12,0.19-0.29,0.19-0.53h-0.7v-1.3h1.29
			v1.15c-0.01,0.41-0.1,0.74-0.28,0.97C-160.31,154.55-160.58,154.69-160.94,154.73z"/>
		<path class="st0" d="M-156.73,153.5v-7.2h1.47v2.96h1.27v-2.96h1.47v7.2h-1.47v-3.19h-1.27v3.19H-156.73z"/>
		<path class="st0" d="M-151.77,153.5l1.4-7.2h1.63l1.39,7.2h-1.36l-0.26-1.58h-1.14l-0.28,1.58H-151.77z M-149.98,151.02h0.86
			l-0.44-2.91L-149.98,151.02z"/>
		<path class="st0" d="M-146.63,153.5v-7.2h1.87c0.49,0,0.9,0.05,1.25,0.16c0.35,0.11,0.61,0.3,0.8,0.58
			c0.19,0.28,0.28,0.66,0.28,1.16c0,0.3-0.03,0.56-0.08,0.79c-0.05,0.23-0.14,0.43-0.27,0.6c-0.13,0.17-0.31,0.3-0.54,0.4l1,3.51
			h-1.5l-0.83-3.26h-0.52v3.26H-146.63z M-145.16,149.37h0.43c0.24,0,0.42-0.04,0.56-0.12c0.14-0.08,0.23-0.19,0.29-0.35
			c0.06-0.16,0.08-0.35,0.08-0.58c0-0.33-0.06-0.59-0.18-0.76c-0.12-0.17-0.35-0.26-0.68-0.26h-0.5V149.37z"/>
		<path class="st0" d="M-140.51,153.5l-1.37-7.2h1.27l0.85,4.98l0.8-4.98h1.32l-1.37,7.2H-140.51z"/>
		<path class="st0" d="M-136.89,153.5v-7.2h3.14v1.01h-1.67v1.91h1.29v1.02h-1.29v2.26h1.69v1H-136.89z"/>
		<path class="st0" d="M-131.13,153.6c-0.44,0-0.82-0.08-1.11-0.24c-0.3-0.16-0.52-0.41-0.67-0.74c-0.15-0.33-0.24-0.75-0.26-1.26
			l1.26-0.21c0.01,0.3,0.04,0.54,0.09,0.74c0.05,0.2,0.13,0.35,0.23,0.44c0.1,0.1,0.23,0.15,0.39,0.15c0.19,0,0.32-0.06,0.39-0.18
			c0.07-0.12,0.1-0.26,0.1-0.41c0-0.3-0.07-0.56-0.22-0.76c-0.15-0.2-0.34-0.41-0.57-0.62l-0.75-0.65
			c-0.27-0.23-0.48-0.48-0.65-0.76c-0.17-0.28-0.25-0.63-0.25-1.05c0-0.59,0.17-1.05,0.52-1.36c0.35-0.32,0.82-0.48,1.43-0.48
			c0.36,0,0.66,0.06,0.89,0.18c0.23,0.12,0.41,0.28,0.54,0.48s0.22,0.41,0.27,0.65c0.05,0.23,0.08,0.47,0.09,0.7l-1.25,0.19
			c-0.01-0.22-0.03-0.41-0.06-0.58c-0.03-0.17-0.08-0.3-0.16-0.39c-0.08-0.09-0.2-0.14-0.36-0.14c-0.17,0-0.3,0.06-0.38,0.19
			s-0.12,0.27-0.12,0.42c0,0.26,0.06,0.46,0.17,0.63c0.12,0.16,0.27,0.33,0.48,0.51l0.73,0.64c0.3,0.26,0.56,0.56,0.78,0.89
			c0.22,0.33,0.32,0.75,0.32,1.24c0,0.34-0.08,0.64-0.23,0.92s-0.37,0.49-0.64,0.64C-130.43,153.52-130.75,153.6-131.13,153.6z"/>
		<path class="st0" d="M-127.83,153.5v-6.11h-1.11v-1.09h3.68v1.09h-1.09v6.11H-127.83z"/>
		<path class="st0" d="M-124.59,153.5v-7.2h1.46v7.2H-124.59z"/>
		<path class="st0" d="M-122.03,153.5v-7.2h1.02l1.6,3.75v-3.75h1.21v7.2h-0.98l-1.6-3.98v3.98H-122.03z"/>
		<path class="st0" d="M-115.26,153.61c-0.49,0-0.87-0.1-1.16-0.31c-0.28-0.2-0.49-0.49-0.61-0.87c-0.12-0.38-0.18-0.81-0.18-1.31
			v-2.41c0-0.52,0.06-0.96,0.19-1.33c0.12-0.37,0.34-0.66,0.65-0.86c0.31-0.2,0.73-0.3,1.27-0.3c0.52,0,0.92,0.09,1.22,0.26
			c0.3,0.17,0.51,0.42,0.64,0.73c0.13,0.31,0.2,0.69,0.2,1.12v0.42h-1.43v-0.51c0-0.19-0.01-0.36-0.04-0.5
			c-0.02-0.15-0.08-0.26-0.16-0.34c-0.09-0.08-0.22-0.12-0.41-0.12c-0.2,0-0.34,0.05-0.43,0.15c-0.09,0.1-0.15,0.23-0.17,0.39
			c-0.02,0.16-0.04,0.32-0.04,0.5v3.19c0,0.2,0.02,0.38,0.05,0.54c0.04,0.16,0.1,0.28,0.2,0.37c0.1,0.09,0.24,0.13,0.42,0.13
			c0.18,0,0.33-0.05,0.43-0.14c0.1-0.09,0.17-0.22,0.21-0.39c0.04-0.16,0.06-0.35,0.06-0.56v-0.76h-0.7v-0.89h2.03v3.7h-0.96
			l-0.09-0.65c-0.09,0.22-0.24,0.4-0.43,0.54C-114.69,153.54-114.94,153.61-115.26,153.61z"/>
		<path class="st0" d="M-109.78,153.5v-7.2h1.47v2.96h1.27v-2.96h1.47v7.2h-1.47v-3.19h-1.27v3.19H-109.78z"/>
		<path class="st0" d="M-104.81,153.5l1.4-7.2h1.63l1.39,7.2h-1.36l-0.26-1.58h-1.14l-0.28,1.58H-104.81z M-103.03,151.02h0.86
			l-0.44-2.91L-103.03,151.02z"/>
		<path class="st0" d="M-99.67,153.5v-7.2h2.29c0.43,0,0.79,0.08,1.06,0.24c0.27,0.16,0.48,0.4,0.61,0.71
			c0.13,0.31,0.2,0.68,0.2,1.12c0,0.52-0.09,0.92-0.26,1.21c-0.17,0.29-0.41,0.5-0.72,0.62c-0.3,0.12-0.65,0.18-1.04,0.18h-0.67
			v3.12H-99.67z M-98.21,149.35h0.52c0.21,0,0.38-0.03,0.49-0.1c0.12-0.07,0.19-0.18,0.24-0.32c0.04-0.15,0.06-0.34,0.06-0.57
			c0-0.22-0.02-0.4-0.05-0.55c-0.03-0.15-0.11-0.26-0.22-0.35c-0.11-0.08-0.29-0.12-0.53-0.12h-0.51V149.35z"/>
		<path class="st0" d="M-94.76,153.5v-7.2h2.29c0.43,0,0.79,0.08,1.06,0.24c0.27,0.16,0.48,0.4,0.61,0.71
			c0.13,0.31,0.2,0.68,0.2,1.12c0,0.52-0.09,0.92-0.26,1.21c-0.17,0.29-0.41,0.5-0.72,0.62c-0.3,0.12-0.65,0.18-1.04,0.18h-0.67
			v3.12H-94.76z M-93.3,149.35h0.52c0.21,0,0.38-0.03,0.49-0.1c0.12-0.07,0.19-0.18,0.24-0.32c0.04-0.15,0.06-0.34,0.06-0.57
			c0-0.22-0.02-0.4-0.05-0.55c-0.03-0.15-0.11-0.26-0.22-0.35c-0.11-0.08-0.29-0.12-0.53-0.12h-0.51V149.35z"/>
		<path class="st0" d="M-89.84,153.5v-7.2h1.46v7.2H-89.84z"/>
		<path class="st0" d="M-87.28,153.5v-7.2h1.02l1.6,3.75v-3.75h1.21v7.2h-0.98l-1.6-3.98v3.98H-87.28z"/>
		<path class="st0" d="M-82.35,153.5v-7.2h3.14v1.01h-1.67v1.91h1.29v1.02h-1.29v2.26h1.69v1H-82.35z"/>
		<path class="st0" d="M-76.59,153.6c-0.44,0-0.82-0.08-1.11-0.24c-0.3-0.16-0.52-0.41-0.67-0.74s-0.24-0.75-0.26-1.26l1.26-0.21
			c0.01,0.3,0.04,0.54,0.09,0.74s0.13,0.35,0.23,0.44c0.1,0.1,0.23,0.15,0.39,0.15c0.19,0,0.32-0.06,0.39-0.18
			c0.07-0.12,0.1-0.26,0.1-0.41c0-0.3-0.07-0.56-0.22-0.76c-0.15-0.2-0.34-0.41-0.57-0.62l-0.75-0.65
			c-0.27-0.23-0.48-0.48-0.65-0.76c-0.17-0.28-0.25-0.63-0.25-1.05c0-0.59,0.17-1.05,0.52-1.36c0.35-0.32,0.82-0.48,1.43-0.48
			c0.36,0,0.66,0.06,0.89,0.18c0.23,0.12,0.41,0.28,0.54,0.48s0.22,0.41,0.27,0.65c0.05,0.23,0.08,0.47,0.09,0.7l-1.25,0.19
			c-0.01-0.22-0.03-0.41-0.06-0.58c-0.03-0.17-0.08-0.3-0.16-0.39c-0.08-0.09-0.2-0.14-0.36-0.14c-0.17,0-0.3,0.06-0.38,0.19
			s-0.12,0.27-0.12,0.42c0,0.26,0.06,0.46,0.17,0.63c0.12,0.16,0.27,0.33,0.48,0.51l0.73,0.64c0.3,0.26,0.56,0.56,0.78,0.89
			c0.22,0.33,0.32,0.75,0.32,1.24c0,0.34-0.08,0.64-0.23,0.92s-0.37,0.49-0.64,0.64S-76.21,153.6-76.59,153.6z"/>
		<path class="st0" d="M-72.23,153.6c-0.44,0-0.82-0.08-1.11-0.24c-0.3-0.16-0.52-0.41-0.67-0.74s-0.24-0.75-0.26-1.26l1.26-0.21
			c0.01,0.3,0.04,0.54,0.09,0.74s0.13,0.35,0.23,0.44c0.1,0.1,0.23,0.15,0.39,0.15c0.19,0,0.32-0.06,0.39-0.18
			c0.07-0.12,0.1-0.26,0.1-0.41c0-0.3-0.07-0.56-0.22-0.76c-0.15-0.2-0.34-0.41-0.57-0.62l-0.75-0.65
			c-0.27-0.23-0.48-0.48-0.65-0.76c-0.17-0.28-0.25-0.63-0.25-1.05c0-0.59,0.17-1.05,0.52-1.36c0.35-0.32,0.82-0.48,1.43-0.48
			c0.36,0,0.66,0.06,0.89,0.18c0.23,0.12,0.41,0.28,0.54,0.48s0.22,0.41,0.27,0.65c0.05,0.23,0.08,0.47,0.09,0.7l-1.25,0.19
			c-0.01-0.22-0.03-0.41-0.06-0.58c-0.03-0.17-0.08-0.3-0.16-0.39c-0.08-0.09-0.2-0.14-0.36-0.14c-0.17,0-0.3,0.06-0.38,0.19
			s-0.12,0.27-0.12,0.42c0,0.26,0.06,0.46,0.17,0.63c0.12,0.16,0.27,0.33,0.48,0.51l0.73,0.64c0.3,0.26,0.56,0.56,0.78,0.89
			c0.22,0.33,0.32,0.75,0.32,1.24c0,0.34-0.08,0.64-0.23,0.92s-0.37,0.49-0.64,0.64S-71.86,153.6-72.23,153.6z"/>
	</g>
</g>
<rect x="-374.19" y="35.05" class="st1" width="305.9" height="194.66"/>
<g>
	<path class="st0" d="M43.89,208.13v-5.49c0-1.14,0.34-2.02,1.01-2.63c0.63-0.58,1.49-0.86,2.58-0.86c1.07,0,1.94,0.3,2.6,0.89
		c0.66,0.59,0.98,1.46,0.98,2.6v1.12h-2.78v-1.36c0-0.29-0.03-0.52-0.09-0.69c-0.12-0.27-0.36-0.41-0.71-0.41
		c-0.33,0-0.57,0.13-0.7,0.39c-0.07,0.21-0.1,0.45-0.1,0.71v5.98c0,0.37,0.06,0.65,0.18,0.85c0.12,0.17,0.33,0.26,0.62,0.26
		c0.33,0,0.56-0.14,0.69-0.43c0.07-0.21,0.1-0.44,0.1-0.68v-1.77h2.78v1.53c0,1.07-0.32,1.92-0.97,2.54
		c-0.64,0.63-1.52,0.95-2.61,0.95c-1.09,0-1.96-0.31-2.61-0.94C44.22,210.06,43.89,209.21,43.89,208.13z"/>
	<path class="st0" d="M52.6,202.62c0-1.14,0.34-2.02,1.01-2.64c0.63-0.57,1.49-0.86,2.58-0.86c1.07,0,1.94,0.29,2.6,0.88
		c0.67,0.59,1,1.46,1,2.62v5.5c0,1.06-0.32,1.91-0.97,2.54c-0.65,0.63-1.52,0.95-2.63,0.95c-1.09,0-1.96-0.31-2.61-0.94
		c-0.65-0.62-0.98-1.48-0.98-2.56V202.62z M53.94,198.6l1.26-2.05h2.13l1.09,2.05h-1.57l-0.66-1.15l-0.76,1.15H53.94z M55.38,208.37
		c0,0.37,0.06,0.65,0.18,0.85c0.12,0.17,0.33,0.26,0.62,0.26c0.33,0,0.56-0.14,0.69-0.43c0.07-0.21,0.1-0.44,0.1-0.68v-5.99
		c0-0.29-0.03-0.52-0.09-0.69c-0.12-0.27-0.36-0.41-0.71-0.41c-0.33,0-0.57,0.13-0.7,0.39c-0.07,0.21-0.1,0.45-0.1,0.71V208.37z"/>
	<path class="st0" d="M61.31,211.43v-12.09h3.04l2.24,7.13l0.03-7.13h2.7v12.09h-3.03l-2.25-7.48L64,211.43H61.31z"/>
	<path class="st0" d="M70.85,208.13v-5.49c0-1.14,0.34-2.02,1.01-2.63c0.63-0.58,1.49-0.86,2.58-0.86c1.07,0,1.9,0.21,2.5,0.62
		c0.72,0.5,1.09,1.28,1.09,2.34v1.34h-2.64v-1.2c0-0.63-0.29-0.95-0.88-0.95c-0.29,0-0.53,0.13-0.71,0.41
		c-0.1,0.22-0.16,0.45-0.16,0.69v5.98c0,0.37,0.06,0.65,0.18,0.85c0.12,0.17,0.33,0.26,0.62,0.26c0.59,0,0.89-0.3,0.89-0.91v-1.56
		h-0.98v-2.24h3.68v6.66h-2.44v-0.98c-0.51,0.78-1.24,1.17-2.18,1.17c-0.9,0-1.57-0.35-2.02-1.06
		C71.03,209.98,70.85,209.17,70.85,208.13z"/>
	<path class="st0" d="M83.16,201.67v-2.33h6.39v2.33h-1.8v9.76h-2.79v-9.76H83.16z"/>
	<path class="st0" d="M92.4,206.65l-2.27-7.31H93l0.78,4.08l0.84-4.08h2.83l-2.27,7.11v4.98H92.4V206.65z"/>
	<path class="st0" d="M102.55,208.13v-5.49c0-1.14,0.34-2.02,1.01-2.63c0.63-0.58,1.49-0.86,2.58-0.86c1.07,0,1.94,0.3,2.6,0.89
		c0.66,0.59,0.98,1.46,0.98,2.6v1.12h-2.78v-1.36c0-0.29-0.03-0.52-0.09-0.69c-0.12-0.27-0.36-0.41-0.71-0.41
		c-0.33,0-0.57,0.13-0.7,0.39c-0.07,0.21-0.1,0.45-0.1,0.71v5.98c0,0.37,0.06,0.65,0.18,0.85c0.12,0.17,0.33,0.26,0.62,0.26
		c0.33,0,0.56-0.14,0.69-0.43c0.07-0.21,0.1-0.44,0.1-0.68v-1.77h2.78v1.53c0,1.07-0.32,1.92-0.97,2.54
		c-0.64,0.63-1.52,0.95-2.61,0.95c-1.09,0-1.96-0.31-2.61-0.94C102.88,210.06,102.55,209.21,102.55,208.13z"/>
	<path class="st0" d="M111.26,202.62c0-1.14,0.34-2.02,1.01-2.64c0.63-0.57,1.49-0.86,2.58-0.86c1.07,0,1.94,0.29,2.6,0.88
		c0.67,0.59,1,1.46,1,2.62v5.5c0,1.06-0.32,1.91-0.97,2.54c-0.65,0.63-1.52,0.95-2.63,0.95c-1.09,0-1.96-0.31-2.61-0.94
		c-0.65-0.62-0.98-1.48-0.98-2.56V202.62z M112.61,198.6l1.26-2.05H116l1.09,2.05h-1.57l-0.66-1.15l-0.76,1.15H112.61z
		 M114.05,208.37c0,0.37,0.06,0.65,0.18,0.85c0.12,0.17,0.33,0.26,0.62,0.26c0.33,0,0.56-0.14,0.69-0.43
		c0.07-0.21,0.1-0.44,0.1-0.68v-5.99c0-0.29-0.03-0.52-0.09-0.69c-0.12-0.27-0.36-0.41-0.71-0.41c-0.33,0-0.57,0.13-0.7,0.39
		c-0.07,0.21-0.1,0.45-0.1,0.71V208.37z M117.01,197.45v-0.3c0-0.21,0.23-0.56,0.7-1.06c0.1-0.1,0.18-0.21,0.24-0.33
		c0.06-0.12,0.1-0.24,0.1-0.36c0-0.16-0.03-0.27-0.08-0.33c-0.03-0.06-0.12-0.1-0.28-0.11c-0.33,0-0.5,0.17-0.5,0.52v0.36h-1.03
		v-0.44c0-0.33,0.13-0.63,0.38-0.89c0.29-0.29,0.69-0.44,1.2-0.44c0.43,0,0.79,0.11,1.06,0.32c0.27,0.21,0.41,0.53,0.41,0.95
		c0,0.38-0.21,0.75-0.62,1.09c-0.42,0.34-0.64,0.69-0.64,1.03H117.01z"/>
	<path class="st0" d="M124.03,211.43v-12.09h2.98c1.6,0,2.7,0.22,3.29,0.65c0.67,0.51,1.01,1.52,1.01,3.03c0,0.41,0,0.7-0.01,0.85
		c-0.02,0.16-0.06,0.39-0.12,0.69c-0.06,0.31-0.19,0.62-0.39,0.92c-0.48,0.77-1.28,1.15-2.41,1.15h-1.57v4.79H124.03z
		 M126.81,201.49v3h0.69c0.4,0,0.68-0.11,0.83-0.32c0.13-0.24,0.2-0.64,0.2-1.21c0-0.67-0.12-1.09-0.35-1.29
		c-0.15-0.12-0.5-0.18-1.06-0.18H126.81z"/>
	<path class="st0" d="M132.74,211.43v-12.09h2.79v4.53h1.6v-4.53h2.78v12.09h-2.78v-5.15h-1.6v5.15H132.74z"/>
	<path class="st0" d="M143.17,199.32h3.69l2.28,12.11h-2.93l-0.26-2.15H144l-0.29,2.15h-2.79L143.17,199.32z M142.79,198.6
		l1.26-2.05h2.13l1.09,2.05h-1.57l-0.67-1.15l-0.75,1.15H142.79z M144.29,207.13h1.39l-0.65-5.93L144.29,207.13z M147.56,194.79
		l0.58,1.85h-1.26l-1.48-1.85H147.56z"/>
	<path class="st0" d="M150.15,211.43v-12.09h3.04l2.24,7.13l0.03-7.13h2.7v12.09h-3.03l-2.25-7.48l-0.03,7.48H150.15z"/>
	<path class="st0" d="M163.75,208.13v-5.49c0-1.14,0.34-2.02,1.01-2.63c0.63-0.58,1.49-0.86,2.58-0.86c1.07,0,1.94,0.3,2.6,0.89
		c0.66,0.59,0.98,1.46,0.98,2.6v1.12h-2.78v-1.36c0-0.29-0.03-0.52-0.09-0.69c-0.12-0.27-0.36-0.41-0.71-0.41
		c-0.33,0-0.57,0.13-0.7,0.39c-0.07,0.21-0.1,0.45-0.1,0.71v5.98c0,0.37,0.06,0.65,0.18,0.85c0.12,0.17,0.33,0.26,0.62,0.26
		c0.33,0,0.56-0.14,0.69-0.43c0.07-0.21,0.1-0.44,0.1-0.68v-1.77h2.78v1.53c0,1.07-0.32,1.92-0.97,2.54
		c-0.64,0.63-1.52,0.95-2.61,0.95c-1.09,0-1.96-0.31-2.61-0.94C164.08,210.06,163.75,209.21,163.75,208.13z"/>
	<path class="st0" d="M172.46,208.13v-8.79h2.79v8.82c0,0.42,0.04,0.73,0.12,0.92c0.07,0.2,0.3,0.3,0.69,0.3
		c0.26,0,0.46-0.08,0.61-0.24c0.13-0.15,0.19-0.48,0.19-0.99v-8.82h2.78v8.79c0,1.07-0.32,1.92-0.97,2.54
		c-0.64,0.63-1.52,0.95-2.61,0.95c-1.09,0-1.96-0.31-2.61-0.94C172.79,210.06,172.46,209.21,172.46,208.13z"/>
	<path class="st0" d="M181.17,211.43v-12.09h3.04l2.24,7.13l0.03-7.13h2.7v12.09h-3.03l-2.25-7.48l-0.03,7.48H181.17z"/>
	<path class="st0" d="M190.72,208.13v-5.49c0-1.14,0.34-2.02,1.01-2.63c0.63-0.58,1.49-0.86,2.58-0.86c1.07,0,1.9,0.21,2.5,0.62
		c0.72,0.5,1.09,1.28,1.09,2.34v1.34h-2.64v-1.2c0-0.63-0.29-0.95-0.88-0.95c-0.29,0-0.53,0.13-0.71,0.41
		c-0.1,0.22-0.16,0.45-0.16,0.69v5.98c0,0.37,0.06,0.65,0.18,0.85c0.12,0.17,0.33,0.26,0.62,0.26c0.59,0,0.89-0.3,0.89-0.91v-1.56
		h-0.98v-2.24h3.68v6.66h-2.44v-0.98c-0.51,0.78-1.24,1.17-2.18,1.17c-0.9,0-1.57-0.35-2.02-1.06
		C190.89,209.98,190.72,209.17,190.72,208.13z"/>
	<path class="st0" d="M210.28,197.98h2.05l-0.01,2.01l-0.97,1.02h-0.67l-0.01,7.12c0,1.06-0.32,1.91-0.97,2.54
		c-0.65,0.63-1.52,0.95-2.63,0.95c-1.09,0-1.96-0.31-2.61-0.94c-0.65-0.62-0.98-1.48-0.98-2.56v-8.81h2.79v8.83
		c0,0.42,0.04,0.73,0.12,0.92c0.07,0.2,0.3,0.3,0.69,0.3c0.26,0,0.46-0.08,0.61-0.24c0.13-0.15,0.19-0.48,0.19-0.99v-8.83l2.41,0.03
		V197.98z M206.78,196.54h2.34l-1.6,2.05h-1.46L206.78,196.54z"/>
	<path class="st0" d="M212.19,211.43v-12.09h3.04l2.24,7.13l0.03-7.13h2.7v12.09h-3.03l-2.25-7.48l-0.03,7.48H212.19z"/>
	<path class="st0" d="M221.73,208.13v-5.49c0-1.14,0.34-2.02,1.01-2.63c0.63-0.58,1.49-0.86,2.58-0.86c1.07,0,1.9,0.21,2.5,0.62
		c0.72,0.5,1.09,1.28,1.09,2.34v1.34h-2.64v-1.2c0-0.63-0.29-0.95-0.88-0.95c-0.29,0-0.53,0.13-0.71,0.41
		c-0.1,0.22-0.16,0.45-0.16,0.69v5.98c0,0.37,0.06,0.65,0.18,0.85c0.12,0.17,0.33,0.26,0.62,0.26c0.59,0,0.89-0.3,0.89-0.91v-1.56
		h-0.98v-2.24h3.68v6.66h-2.44v-0.98c-0.51,0.78-1.24,1.17-2.18,1.17c-0.9,0-1.57-0.35-2.02-1.06
		C221.91,209.98,221.73,209.17,221.73,208.13z"/>
	<path class="st0" d="M234.5,211.43v-12.09h3.04l2.24,7.13l0.03-7.13h2.7v12.09h-3.03l-2.25-7.48l-0.03,7.48H234.5z"/>
	<path class="st0" d="M244.04,202.62c0-1.14,0.34-2.02,1.01-2.64c0.63-0.57,1.49-0.86,2.58-0.86c1.07,0,1.94,0.29,2.6,0.88
		c0.67,0.59,1,1.46,1,2.62v5.5c0,1.06-0.32,1.91-0.97,2.54c-0.65,0.63-1.52,0.95-2.63,0.95c-1.09,0-1.96-0.31-2.61-0.94
		c-0.65-0.62-0.98-1.48-0.98-2.56V202.62z M245.39,198.6l1.26-2.05h2.13l1.09,2.05h-1.57l-0.66-1.15l-0.76,1.15H245.39z
		 M246.83,208.37c0,0.37,0.06,0.65,0.18,0.85c0.12,0.17,0.33,0.26,0.62,0.26c0.33,0,0.56-0.14,0.69-0.43
		c0.07-0.21,0.1-0.44,0.1-0.68v-5.99c0-0.29-0.03-0.52-0.09-0.69c-0.12-0.27-0.36-0.41-0.71-0.41c-0.33,0-0.57,0.13-0.7,0.39
		c-0.07,0.21-0.1,0.45-0.1,0.71V208.37z"/>
	<path class="st0" d="M252.75,211.43v-12.09h3.04l2.24,7.13l0.03-7.13h2.7v12.09h-3.03l-2.25-7.48l-0.03,7.48H252.75z"/>
	<path class="st0" d="M262.29,208.13v-5.49c0-1.14,0.34-2.02,1.01-2.63c0.63-0.58,1.49-0.86,2.58-0.86c1.07,0,1.9,0.21,2.5,0.62
		c0.72,0.5,1.09,1.28,1.09,2.34v1.34h-2.64v-1.2c0-0.63-0.29-0.95-0.88-0.95c-0.29,0-0.53,0.13-0.71,0.41
		c-0.1,0.22-0.16,0.45-0.16,0.69v5.98c0,0.37,0.06,0.65,0.18,0.85c0.12,0.17,0.33,0.26,0.62,0.26c0.59,0,0.89-0.3,0.89-0.91v-1.56
		h-0.98v-2.24h3.68v6.66h-2.44v-0.98c-0.51,0.78-1.24,1.17-2.18,1.17c-0.9,0-1.57-0.35-2.02-1.06
		C262.47,209.98,262.29,209.17,262.29,208.13z"/>
	<path class="st0" d="M275.06,211.43v-12.09h2.79v9.76h3.03v2.33H275.06z"/>
	<path class="st0" d="M283.8,199.32h3.69l2.28,12.11h-2.93l-0.26-2.15h-1.95l-0.29,2.15h-2.79L283.8,199.32z M283.42,198.6
		l1.26-2.05h2.13l1.09,2.05h-1.57l-0.67-1.15l-0.75,1.15H283.42z M284.92,207.13h1.39l-0.65-5.93L284.92,207.13z"/>
	<path class="st0" d="M290.86,211.43v-12.09h4.39l0.79,5.99l0.81-5.99h4.39v12.09h-2.69v-9.4l-1.59,9.4h-1.82l-1.56-9.4l-0.03,9.4
		H290.86z"/>
	<path class="st0" d="M306.91,211.43v-12.09h3.04l2.24,7.13l0.03-7.13h2.7v12.09h-3.03l-2.25-7.48l-0.03,7.48H306.91z"/>
	<path class="st0" d="M316.45,208.13v-5.49c0-1.14,0.34-2.02,1.01-2.63c0.63-0.58,1.49-0.86,2.58-0.86c1.07,0,1.9,0.21,2.5,0.62
		c0.72,0.5,1.09,1.28,1.09,2.34v1.34h-2.64v-1.2c0-0.63-0.29-0.95-0.88-0.95c-0.29,0-0.53,0.13-0.71,0.41
		c-0.1,0.22-0.16,0.45-0.16,0.69v5.98c0,0.37,0.06,0.65,0.18,0.85c0.12,0.17,0.33,0.26,0.62,0.26c0.59,0,0.89-0.3,0.89-0.91v-1.56
		h-0.98v-2.24h3.68v6.66h-2.44v-0.98c-0.51,0.78-1.24,1.17-2.18,1.17c-0.9,0-1.57-0.35-2.02-1.06
		C316.63,209.98,316.45,209.17,316.45,208.13z"/>
	<path class="st0" d="M325.16,211.43v-12.09h2.79v4.53h1.6v-4.53h2.78v12.09h-2.78v-5.15h-1.6v5.15H325.16z"/>
	<path class="st0" d="M333.96,211.43v-12.09h2.79v12.09H333.96z"/>
	<path class="st0" d="M338.38,199.32h6.19v2.33h-3.41v2.42h2.98v2.33h-2.98v2.69h3.54v2.33h-6.32V199.32z M339.3,198.6l1.26-2.05
		h2.13l1.09,2.05h-1.57l-0.67-1.15l-0.75,1.15H339.3z M340.14,212.59h2.6v1.79h-2.6V212.59z"/>
	<path class="st0" d="M346.24,211.43v-12.09h2.98c1.6,0,2.7,0.22,3.29,0.65c0.67,0.51,1.01,1.52,1.01,3.03c0,0.41,0,0.7-0.01,0.85
		c-0.02,0.16-0.06,0.39-0.12,0.69c-0.06,0.31-0.19,0.62-0.39,0.92c-0.48,0.77-1.28,1.15-2.41,1.15h-1.57v4.79H346.24z
		 M349.03,201.49v3h0.69c0.4,0,0.68-0.11,0.83-0.32c0.13-0.24,0.2-0.64,0.2-1.21c0-0.67-0.12-1.09-0.35-1.29
		c-0.15-0.12-0.5-0.18-1.06-0.18H349.03z"/>
</g>
</svg>
